<svg width="98" height="55" viewBox="0 0 98 55" fill="none" xmlns="http://www.w3.org/2000/svg">
<path opacity="0.9" d="M0 15.2415C0 13.5846 1.34315 12.2415 3 12.2415H4.84914C5.65877 12.2415 6.43402 12.5687 6.99877 13.1488L7.62019 13.7872C8.79794 14.997 10.7417 14.997 11.9195 13.7872L12.5409 13.1488C13.1056 12.5687 13.8809 12.2415 14.6905 12.2415H16.6888C18.3457 12.2415 19.6888 13.5846 19.6888 15.2415V51.473C19.6888 53.1298 18.3457 54.473 16.6888 54.473H3C1.34315 54.473 0 53.1298 0 51.473V15.2415Z" fill="#04091E"/>
<path opacity="0.9" d="M77.6787 21.4784C77.6787 19.6938 79.1254 18.2471 80.91 18.2471H82.6787C83.4593 18.2471 84.2134 18.5296 84.8019 19.0425L85.4774 19.6312C86.6941 20.6918 88.5069 20.6918 89.7236 19.6312L90.3991 19.0425C90.9875 18.5296 91.7417 18.2471 92.5222 18.2471H94.4424C96.227 18.2471 97.6737 19.6938 97.6737 21.4784V51.4059C97.6737 53.1905 96.227 54.6372 94.4424 54.6372H80.91C79.1254 54.6372 77.6787 53.1905 77.6787 51.4059V21.4784Z" fill="#FF820E"/>
<path opacity="0.9" d="M28.9198 29C27.1352 29 25.6885 30.4467 25.6885 32.2313V51C25.6885 52.6569 27.0316 54 28.6885 54H42.6835C44.3404 54 45.6835 52.6569 45.6835 51V32.2313C45.6835 30.4467 44.2368 29 42.4522 29H40.9171C39.9113 29 38.9629 29.4684 38.3514 30.267L38.1759 30.4962C36.8826 32.1855 34.3379 32.1855 33.0446 30.4962L32.8691 30.267C32.2576 29.4684 31.3092 29 30.3034 29H28.9198Z" fill="#FF820E"/>
<path opacity="0.9" d="M54.6836 0C53.0267 0 51.6836 1.34314 51.6836 3V51C51.6836 52.6569 53.0267 54 54.6836 54H68.6786C70.3355 54 71.6786 52.6569 71.6786 51V3C71.6786 1.34315 70.3355 0 68.6786 0H66.9773C65.944 0 64.9835 0.531746 64.4349 1.40741L64.1477 1.86588C62.9722 3.74243 60.2385 3.74243 59.063 1.86588L58.7758 1.40741C58.2273 0.531746 57.2667 0 56.2334 0H54.6836Z" fill="#04091E"/>
</svg>
