<svg width="606" height="175" viewBox="0 0 606 175" fill="none" xmlns="http://www.w3.org/2000/svg">
<path d="M2.29272 4.1889C2.29272 1.97976 4.08359 0.188904 6.29272 0.188904H13.5481C15.0313 0.188904 16.3927 1.00961 17.0853 2.32121L18.8203 5.60707C21.0721 9.87168 27.1801 9.87167 29.4318 5.60707L31.1668 2.32121C31.8594 1.00961 33.2208 0.188904 34.704 0.188904H42.2927C44.5019 0.188904 46.2927 1.97976 46.2927 4.1889V170.189C46.2927 172.398 44.5019 174.189 42.2927 174.189H6.29272C4.08358 174.189 2.29272 172.398 2.29272 170.189V4.1889Z" fill="#EAFBF7"/>
<line x1="24.5" y1="14.1972" x2="24.5" y2="173.5" stroke="white" stroke-linecap="round"/>
<path d="M95.2927 4.1889C95.2927 1.97976 97.0836 0.188904 99.2927 0.188904H106.548C108.031 0.188904 109.393 1.00961 110.085 2.32121L111.82 5.60707C114.072 9.87168 120.18 9.87167 122.432 5.60707L124.167 2.32121C124.859 1.00961 126.221 0.188904 127.704 0.188904H135.293C137.502 0.188904 139.293 1.97976 139.293 4.1889V170.189C139.293 172.398 137.502 174.189 135.293 174.189H99.2927C97.0836 174.189 95.2927 172.398 95.2927 170.189V4.1889Z" fill="#EAFBF7"/>
<line x1="117.5" y1="14.1972" x2="117.5" y2="173.5" stroke="white" stroke-linecap="round"/>
<path d="M188.293 4.1889C188.293 1.97976 190.084 0.188904 192.293 0.188904H199.548C201.031 0.188904 202.393 1.00961 203.085 2.32121L204.82 5.60707C207.072 9.87168 213.18 9.87167 215.432 5.60707L217.167 2.32121C217.859 1.00961 219.221 0.188904 220.704 0.188904H228.293C230.502 0.188904 232.293 1.97976 232.293 4.1889V170.189C232.293 172.398 230.502 174.189 228.293 174.189H192.293C190.084 174.189 188.293 172.398 188.293 170.189V4.1889Z" fill="#EAFBF7"/>
<line x1="210.5" y1="14.1972" x2="210.5" y2="173.5" stroke="white" stroke-linecap="round"/>
<path d="M281.293 4.1889C281.293 1.97976 283.084 0.188904 285.293 0.188904H292.548C294.031 0.188904 295.393 1.00961 296.085 2.32121L297.82 5.60707C300.072 9.87168 306.18 9.87167 308.432 5.60707L310.167 2.32121C310.859 1.00961 312.221 0.188904 313.704 0.188904H321.293C323.502 0.188904 325.293 1.97976 325.293 4.1889V170.189C325.293 172.398 323.502 174.189 321.293 174.189H285.293C283.084 174.189 281.293 172.398 281.293 170.189V4.1889Z" fill="url(#paint0_linear_4_829)"/>
<line x1="303.5" y1="14.1972" x2="303.5" y2="173.5" stroke="white" stroke-linecap="round"/>
<path d="M374.293 4.1889C374.293 1.97976 376.084 0.188904 378.293 0.188904H385.548C387.031 0.188904 388.393 1.00961 389.085 2.32121L390.82 5.60707C393.072 9.87168 399.18 9.87167 401.432 5.60707L403.167 2.32121C403.859 1.00961 405.221 0.188904 406.704 0.188904H414.293C416.502 0.188904 418.293 1.97976 418.293 4.1889V170.189C418.293 172.398 416.502 174.189 414.293 174.189H378.293C376.084 174.189 374.293 172.398 374.293 170.189V4.1889Z" fill="#EAFBF7"/>
<line x1="396.5" y1="14.1972" x2="396.5" y2="173.5" stroke="white" stroke-linecap="round"/>
<path d="M467.293 4.1889C467.293 1.97976 469.084 0.188904 471.293 0.188904H478.548C480.031 0.188904 481.393 1.00961 482.085 2.32121L483.82 5.60707C486.072 9.87168 492.18 9.87167 494.432 5.60707L496.167 2.32121C496.859 1.00961 498.221 0.188904 499.704 0.188904H507.293C509.502 0.188904 511.293 1.97976 511.293 4.1889V170.189C511.293 172.398 509.502 174.189 507.293 174.189H471.293C469.084 174.189 467.293 172.398 467.293 170.189V4.1889Z" fill="#EAFBF7"/>
<line x1="489.5" y1="14.1972" x2="489.5" y2="173.5" stroke="white" stroke-linecap="round"/>
<path d="M560.293 4.1889C560.293 1.97976 562.084 0.188904 564.293 0.188904H571.548C573.032 0.188904 574.393 1.00961 575.086 2.32121L576.821 5.60707C579.072 9.87168 585.18 9.87167 587.432 5.60707L589.167 2.32121C589.86 1.00961 591.221 0.188904 592.704 0.188904H600.293C602.502 0.188904 604.293 1.97976 604.293 4.1889V170.189C604.293 172.398 602.502 174.189 600.293 174.189H564.293C562.084 174.189 560.293 172.398 560.293 170.189V4.1889Z" fill="#EAFBF7"/>
<line x1="582.5" y1="14.1972" x2="582.5" y2="173.5" stroke="white" stroke-linecap="round"/>
<path d="M604 127.169L584.59 134.123C579.187 136.059 573.341 136.404 567.747 135.118L553.646 131.874C550.746 131.207 547.962 130.113 545.385 128.627L522.231 115.275L519.089 113.726C505.184 106.869 488.346 111.736 480.243 124.954L471.279 139.578C468.389 144.292 464.253 148.116 459.327 150.627L451.185 154.778C444.035 158.423 435.581 158.463 428.397 154.886V154.886C418.676 150.045 406.95 151.942 399.251 159.601L394.568 164.259C388.548 170.248 380.227 173.332 371.758 172.714V172.714C362.705 172.053 354.469 167.237 349.455 159.671L337.891 142.225C333.108 135.009 325.44 130.21 316.858 129.064L313.081 128.559C306.346 127.659 300.116 124.5 295.41 119.598L286.308 110.114C279.61 103.136 269.957 99.815 260.383 101.196L256.248 101.792C250.821 102.575 245.282 101.854 240.235 99.7098L235.106 97.5308C226.196 93.7446 216.006 94.4913 207.743 99.536L207.079 99.941C198.434 105.219 187.71 105.778 178.563 101.428L174.239 99.3717C169.017 96.8879 163.116 96.2133 157.467 97.4544V97.4544C146.213 99.9271 134.671 94.7096 129.092 84.6272L122.849 73.3438C116.318 61.5403 102.081 56.3642 89.4942 61.2172V61.2172C85.7253 62.6704 81.6785 63.2599 77.6517 62.9422L74.7669 62.7147C63.6715 61.8396 53.0035 67.1789 47.054 76.5851L34.4069 96.5802C30.9249 102.085 25.7458 106.307 19.6521 108.609L1.99994 115.275" stroke="#B8E716" stroke-width="3" stroke-linecap="round" stroke-linejoin="round"/>
<path d="M2 96.7818L29.0417 88.5178L51.2099 80.5753C54.8124 79.2846 58.7096 79.0545 62.4389 79.9123L80.8534 84.148C82.7863 84.5926 84.6424 85.3223 86.3607 86.3131L110.811 100.412L122.134 105.995C131.403 110.567 142.629 107.322 148.031 98.5103L163.236 73.7055C165.162 70.5629 167.92 68.0137 171.204 66.3396L184.246 59.6909C189.893 56.8122 196.57 56.7806 202.244 59.6058L216.869 66.8882C219.529 68.2126 222.45 68.9277 225.421 68.9816L250.055 69.4284C252.66 69.4757 255.249 69.0136 257.676 68.0682L291.137 55.0364C298.539 52.1534 306.946 53.9248 312.556 59.5497L315 62L328.5 82L339.648 97.7932C340.215 98.5967 340.841 99.3571 341.52 100.069L357.999 117.334C363.37 122.961 372.182 123.462 378.156 118.481V118.481C382.413 114.931 388.299 114.062 393.401 116.23L402.667 120.167C408.608 122.691 415.401 122.193 420.91 118.83L430.581 112.926C436.344 109.408 443.494 109.035 449.592 111.935L460.671 117.204C464.683 119.112 469.215 119.63 473.553 118.677L479.976 117.266C488.619 115.367 497.483 119.374 501.767 127.117L513.151 147.69C517.986 156.429 528.527 160.261 537.846 156.668L545.034 153.897C547.824 152.821 550.82 152.384 553.802 152.619L564.288 153.446C571.685 154.03 578.797 150.47 582.763 144.2L604 110.624" stroke="#DEE33E" stroke-width="3" stroke-linecap="round" stroke-linejoin="round"/>
<defs>
<linearGradient id="paint0_linear_4_829" x1="303.293" y1="0.188904" x2="303.293" y2="174.189" gradientUnits="userSpaceOnUse">
<stop stop-color="#B8E716"/>
<stop offset="1" stop-color="#B8E716" stop-opacity="0"/>
</linearGradient>
</defs>
</svg>
